name ./resultDataOpenSim/trcMotMarkerGrf/sub06/grf-12-02.mot
datacolumns 19
datarows 27
range 0.96400000 1.06800000
endheader

                time	     ground_force_vx	     ground_force_vy	     ground_force_vz	     ground_force_px	     ground_force_py	     ground_force_pz	   l_ground_force_vx	   l_ground_force_vy	   l_ground_force_vz	   l_ground_force_px	   l_ground_force_py	   l_ground_force_pz	     ground_torque_x	     ground_torque_y	     ground_torque_z	   l_ground_torque_x	   l_ground_torque_y	   l_ground_torque_z	
          0.96400000	          0.00000000	          0.00000000	          0.00000000	          0.00000000	          0.00000000	          0.00000000	         92.34394124	        609.31240172	         18.74596779	          0.19400990	         -0.02500100	         -0.05030900	          0.00000000	          0.00000000	          0.00000000	          0.00000000	         -2.98154363	          0.00000000	
          0.96800000	          0.00000000	          0.00000000	          0.00000000	          0.00000000	          0.00000000	          0.00000000	         98.10255409	        628.29690708	         20.22849661	          0.19424699	         -0.02500100	         -0.05016094	          0.00000000	          0.00000000	          0.00000000	          0.00000000	         -3.01556685	          0.00000000	
          0.97200000	          0.00000000	          0.00000000	          0.00000000	          0.00000000	          0.00000000	          0.00000000	        104.15382702	        646.19060445	         21.51694012	          0.19460974	         -0.02500100	         -0.04998114	          0.00000000	          0.00000000	          0.00000000	          0.00000000	         -3.04963497	          0.00000000	
          0.97600000	          0.00000000	          0.00000000	          0.00000000	          0.00000000	          0.00000000	          0.00000000	        110.50682608	        662.71616922	         22.56031507	          0.19509474	         -0.02500100	         -0.04977626	          0.00000000	          0.00000000	          0.00000000	          0.00000000	         -3.08556851	          0.00000000	
          0.98000000	          0.00000000	          0.00000000	          0.00000000	          0.00000000	          0.00000000	          0.00000000	        117.17671586	        677.69999001	         23.30193968	          0.19568778	         -0.02500100	         -0.04954875	          0.00000000	          0.00000000	          0.00000000	          0.00000000	         -3.12525103	          0.00000000	
          0.98400000	          0.00000000	          0.00000000	          0.00000000	          0.00000000	          0.00000000	          0.00000000	        124.18419999	        691.02392906	         23.70920200	          0.19637325	         -0.02500100	         -0.04929859	          0.00000000	          0.00000000	          0.00000000	          0.00000000	         -3.16977848	          0.00000000	
          0.98800000	          0.00000000	          0.00000000	          0.00000000	          0.00000000	          0.00000000	          0.00000000	        131.51923719	        702.56742774	         23.79611404	          0.19714052	         -0.02500100	         -0.04903114	          0.00000000	          0.00000000	          0.00000000	          0.00000000	         -3.21848381	          0.00000000	
          0.99200000	          0.00000000	          0.00000000	          0.00000000	          0.00000000	          0.00000000	          0.00000000	        139.11003832	        712.18254806	         23.61236571	          0.19797401	         -0.02500100	         -0.04875183	          0.00000000	          0.00000000	          0.00000000	          0.00000000	         -3.26829158	          0.00000000	
          0.99600000	          0.00000000	          0.00000000	          0.00000000	          0.00000000	          0.00000000	          0.00000000	        146.83090598	        719.69023198	         23.21897115	          0.19885280	         -0.02500100	         -0.04845514	          0.00000000	          0.00000000	          0.00000000	          0.00000000	         -3.31360032	          0.00000000	
          1.00000000	          0.00000000	          0.00000000	          0.00000000	          0.00000000	          0.00000000	          0.00000000	        154.54331682	        724.90032686	         22.67370003	          0.19973913	         -0.02500100	         -0.04814096	          0.00000000	          0.00000000	          0.00000000	          0.00000000	         -3.34671840	          0.00000000	
          1.00400000	          0.00000000	          0.00000000	          0.00000000	          0.00000000	          0.00000000	          0.00000000	        162.13650283	        727.64727412	         22.02960709	          0.20059096	         -0.02500100	         -0.04781920	          0.00000000	          0.00000000	          0.00000000	          0.00000000	         -3.35889177	          0.00000000	
          1.00800000	          0.00000000	          0.00000000	          0.00000000	          0.00000000	          0.00000000	          0.00000000	        169.53308055	        727.82104661	         21.33304688	          0.20139782	         -0.02500100	         -0.04750186	          0.00000000	          0.00000000	          0.00000000	          0.00000000	         -3.34186359	          0.00000000	
          1.01200000	          0.00000000	          0.00000000	          0.00000000	          0.00000000	          0.00000000	          0.00000000	        176.66170390	        725.37740284	         20.61210586	          0.20214823	         -0.02500100	         -0.04720300	          0.00000000	          0.00000000	          0.00000000	          0.00000000	         -3.28957715	          0.00000000	
          1.01600000	          0.00000000	          0.00000000	          0.00000000	          0.00000000	          0.00000000	          0.00000000	        183.43784381	        720.31180680	         19.86934551	          0.20283043	         -0.02500086	         -0.04692649	          0.00000000	          0.00000000	          0.00000000	          0.00000000	         -3.19940756	          0.00000000	
          1.02000000	          0.00000000	          0.00000000	          0.00000000	          0.00000000	          0.00000000	          0.00000000	        189.77492168	        712.61378493	         19.08874833	          0.20343478	         -0.02500017	         -0.04666630	          0.00000000	          0.00000000	          0.00000000	          0.00000000	         -3.07251684	          0.00000000	
          1.02400000	          0.00000000	          0.00000000	          0.00000000	          0.00000000	          0.00000000	          0.00000000	        195.59852139	        702.23335321	         18.24726409	          0.20395263	         -0.02500000	         -0.04641972	          0.00000000	          0.00000000	          0.00000000	          0.00000000	         -2.91342841	          0.00000000	
          1.02800000	          0.00000000	          0.00000000	          0.00000000	          0.00000000	          0.00000000	          0.00000000	        200.83063598	        689.06178246	         17.31934150	          0.20439399	         -0.02500000	         -0.04617620	          0.00000000	          0.00000000	          0.00000000	          0.00000000	         -2.72922751	          0.00000000	
          1.03200000	          0.00000000	          0.00000000	          0.00000000	          0.00000000	          0.00000000	          0.00000000	        205.35015414	        672.90722824	         16.27338649	          0.20478374	         -0.02500000	         -0.04592768	          0.00000000	          0.00000000	          0.00000000	          0.00000000	         -2.52867410	          0.00000000	
          1.03600000	          0.00000000	          0.00000000	          0.00000000	          0.00000000	          0.00000000	          0.00000000	        208.95810049	        653.46693276	         15.06738100	          0.20515229	         -0.02500000	         -0.04567453	          0.00000000	          0.00000000	          0.00000000	          0.00000000	         -2.32123522	          0.00000000	
          1.04000000	         -1.04969330	         34.20360652	          3.34276916	          0.85367929	          0.00000000	          0.03843125	        211.35598043	        630.31897557	         13.65094308	          0.20553145	         -0.02500000	         -0.04542154	          0.00000000	          0.08778017	          0.00000000	          0.00000000	         -2.11596497	          0.00000000	
          1.04400000	        -18.10830004	        183.84644324	         11.73990539	          0.85951798	          0.00000000	          0.03804331	        212.13535815	        602.95466989	         11.98072209	          0.20594942	         -0.02500000	         -0.04517350	          0.00000000	          0.28893392	          0.00000000	          0.00000000	         -1.92031015	          0.00000000	
          1.04800000	        -36.93560238	        322.11808257	         19.23351008	          0.86475463	          0.00000000	          0.03782274	        210.79676370	        570.86955731	         10.04787522	          0.20644531	         -0.02500000	         -0.04493255	          0.00000000	          0.49803929	          0.00000000	          0.00000000	         -1.73911880	          0.00000000	
          1.05200000	        -58.38190649	        439.72570160	         24.84841109	          0.86992022	          0.00000000	          0.03803716	        206.81395560	        533.71059085	          7.90198631	          0.20707713	         -0.02500000	         -0.04469606	          0.00000000	          0.71247308	          0.00000000	          0.00000000	         -1.57420972	          0.00000000	
          1.05600000	        -82.47956346	        533.60974106	         27.56408431	          0.87501286	          0.00000000	          0.03885133	        199.72338653	        491.45255343	          5.65208507	          0.20790751	         -0.02500000	         -0.04445809	          0.00000000	          0.92005179	          0.00000000	          0.00000000	         -1.42472527	          0.00000000	
          1.06000000	       -108.40831315	        606.40382754	         26.80147882	          0.88002828	          0.00000000	          0.04008686	        189.19721658	        444.56772186	          3.43700606	          0.20897462	         -0.02499960	         -0.04421469	          0.00000000	          1.09942103	          0.00000000	          0.00000000	         -1.28816672	          0.00000000	
          1.06400000	       -134.80862881	        662.54623715	         22.79161412	          0.88516342	          0.00000000	          0.04137245	        175.08988125	        394.12286572	          1.38099686	          0.21027924	         -0.02499864	         -0.04396327	          0.00000000	          1.22404950	          0.00000000	          0.00000000	         -1.16167751	          0.00000000	
          1.06800000	       -159.95428169	        704.47855972	         16.49070706	          0.89056800	          0.00000000	          0.04247550	        157.50852247	        341.72203309	         -0.43311337	          0.21183330	         -0.02499800	         -0.04370047	          0.00000000	          1.26873994	          0.00000000	          0.00000000	         -1.04301088	          0.00000000	
